<?xml version="1.0" standalone="no"?>
<!DOCTYPE svg PUBLIC "-//W3C//DTD SVG 20010904//EN"
 "http://www.w3.org/TR/2001/REC-SVG-20010904/DTD/svg10.dtd">
<svg version="1.0" xmlns="http://www.w3.org/2000/svg"
 width="512.000000pt" height="512.000000pt" viewBox="0 0 512.000000 512.000000"
 preserveAspectRatio="xMidYMid meet">
<metadata>
Created by potrace 1.14, written by Peter Selinger 2001-2017
</metadata>
<g transform="translate(0.000000,512.000000) scale(0.100000,-0.100000)"
fill="#000000" stroke="none">
<path d="M0 4745 l0 -375 23 -1 c30 0 1840 0 1894 0 l42 1 218 363 c120 199
219 368 221 375 3 9 -242 12 -1197 12 l-1201 0 0 -375z"/>
<path d="M2454 4608 c-169 -282 -313 -520 -320 -528 -11 -13 -143 -15 -1073
-15 l-1061 1 2 -226 3 -225 2558 0 2557 -1 0 753 0 753 -1179 0 -1180 0 -307
-512z m857 -281 c3 -151 0 -250 -9 -256 -6 -3 -72 -6 -149 -6 l-138 1 -3 150
-3 150 151 1 150 1 1 -41z m600 35 c1 -4 2 -71 3 -149 1 -120 -1 -142 -14
-145 -8 -2 -76 -3 -150 -3 l-135 0 -1 145 c-1 80 0 148 2 151 4 8 294 10 295
1z m605 -145 l-1 -152 -150 1 -150 0 0 145 c0 79 1 147 2 150 2 4 70 7 151 7
l149 1 -1 -152z"/>
<path d="M23 3312 l-23 -3 0 -1655 0 -1654 1205 0 1205 0 -2 1656 -3 1656
-1180 2 c-649 0 -1190 0 -1202 -2z m1318 -618 c221 -51 392 -223 448 -447 16
-65 18 -131 18 -705 l0 -632 -21 -5 c-11 -2 -79 -3 -151 -2 l-129 2 0 300 0
301 -301 -1 -300 0 0 -290 c-1 -159 -4 -295 -8 -301 -4 -8 -53 -11 -149 -10
l-143 1 -1 634 c-1 506 1 647 12 694 54 229 227 406 450 461 72 18 199 18 275
0z"/>
<path d="M1135 2401 c-91 -23 -162 -83 -203 -171 -24 -51 -25 -64 -27 -237 -1
-101 1 -183 4 -184 8 0 529 0 567 0 l31 1 -2 183 c-1 174 -3 185 -27 237 -34
71 -79 117 -146 148 -58 26 -145 36 -197 23z"/>
<path d="M2738 3312 l-28 -3 0 -1655 0 -1654 1205 0 1205 0 0 1658 0 1657
-1178 0 c-647 0 -1189 -1 -1204 -3z m1378 -617 c377 -99 526 -553 278 -849
l-33 -38 40 -51 c80 -101 117 -213 113 -342 -7 -242 -171 -440 -416 -502 -13
-3 -211 -7 -440 -8 l-418 -2 -1 21 c-1 29 -1 1746 0 1769 1 16 25 17 414 17
312 -1 424 -5 463 -15z"/>
<path d="M3542 2184 l3 -228 247 1 c235 0 249 2 290 23 92 47 132 110 131 208
0 80 -36 143 -107 187 l-49 30 -259 3 -258 3 2 -227z"/>
<path d="M3542 1431 l3 -226 246 0 c236 0 249 1 295 23 173 82 170 323 -6 409
-30 15 -72 17 -288 19 l-252 2 2 -227z"/>
</g>
</svg>
